<svg width="121" height="49" viewBox="0 0 121 49" fill="none" xmlns="http://www.w3.org/2000/svg">
<path d="M35.5 13.5996C35.5 11.7996 35.2 5.49961 30 2.09961C26.9 0.0996094 23.8 0.0996094 20.2 0.0996094H0.200012V5.59961H20.5C21.9 5.59961 22.9 5.59961 24.2 5.89961C26.4 6.49961 28.1 7.99961 28.9 10.2996C29.4 11.6996 29.4 12.9996 29.4 13.4996C29.4 17.1996 27.8 20.6996 24.1 21.6996C22.5 22.0996 20.8 21.9996 19.1 21.9996H0.200012V48.0996H6.20001V27.7996H19.6C23.2 27.7996 24.9 27.6996 26.6 27.1996C32.6 25.4996 35.5 19.7996 35.5 13.5996Z" fill="#23304D"/>
<path d="M120.7 13.5996C120.7 11.7996 120.4 5.49961 115.2 2.09961C112.1 0.0996094 109 0.0996094 105.4 0.0996094H85.4V5.59961H105.7C107.1 5.59961 108.1 5.59961 109.4 5.89961C111.6 6.49961 113.3 7.99961 114.1 10.2996C114.6 11.6996 114.6 12.9996 114.6 13.4996C114.6 17.1996 113 20.6996 109.3 21.6996C107.7 22.0996 106 21.9996 104.3 21.9996H85.4V48.0996H91.4V27.7996H104.8C108.3 27.7996 110.1 27.6996 111.8 27.1996C117.8 25.4996 120.7 19.7996 120.7 13.5996Z" fill="#23304D"/>
<path d="M78.1 13.5996C78.1 11.7996 77.8 5.49961 72.6 2.09961C69.5 0.0996094 66.4 0.0996094 62.8 0.0996094H42.8V5.59961H63.1C64.5 5.59961 65.5 5.59961 66.8 5.89961C69 6.49961 70.7 7.99961 71.5 10.2996C72 11.6996 72 12.9996 72 13.4996C72 17.1996 70.4 20.6996 66.7 21.6996C65.1 22.0996 63.4 21.9996 61.7 21.9996H42.8V48.0996H48.8V27.7996H62.2C65.8 27.7996 67.5 27.6996 69.2 27.1996C75.2 25.4996 78.1 19.7996 78.1 13.5996Z" fill="#23304D"/>
</svg>