<svg width="142" height="75" viewBox="0 0 142 75" fill="none" xmlns="http://www.w3.org/2000/svg">
<path d="M35.5 26.5996C35.5 24.7996 35.2 18.4996 30 15.0996C26.9 13.0996 23.8 13.0996 20.2 13.0996H0.199951V18.5996H20.5C21.9 18.5996 22.9 18.5996 24.2 18.8996C26.4 19.4996 28.1 20.9996 28.9 23.2996C29.4 24.6996 29.4 25.9996 29.4 26.4996C29.4 30.1996 27.7999 33.6996 24.0999 34.6996C22.4999 35.0996 20.7999 34.9996 19.0999 34.9996H0.199951V61.0996H6.19995V40.7996H19.5999C23.1999 40.7996 24.8999 40.6996 26.5999 40.1996C32.5999 38.4996 35.5 32.7996 35.5 26.5996Z" fill="#23304D"/>
<path d="M120.7 26.5996C120.7 24.7996 120.4 18.4996 115.2 15.0996C112.1 13.0996 109 13.0996 105.4 13.0996H85.3999V18.5996H105.7C107.1 18.5996 108.1 18.5996 109.4 18.8996C111.6 19.4996 113.3 20.9996 114.1 23.2996C114.6 24.6996 114.6 25.9996 114.6 26.4996C114.6 30.1996 113 33.6996 109.3 34.6996C107.7 35.0996 106 34.9996 104.3 34.9996H85.3999V61.0996H91.3999V40.7996H104.8C108.3 40.7996 110.1 40.6996 111.8 40.1996C117.8 38.4996 120.7 32.7996 120.7 26.5996Z" fill="#23304D"/>
<path d="M78.0999 26.5996C78.0999 24.7996 77.7999 18.4996 72.5999 15.0996C69.4999 13.0996 66.3999 13.0996 62.7999 13.0996H42.7999V18.5996H63.0999C64.4999 18.5996 65.4999 18.5996 66.7999 18.8996C68.9999 19.4996 70.6999 20.9996 71.4999 23.2996C71.9999 24.6996 71.9999 25.9996 71.9999 26.4996C71.9999 30.1996 70.3999 33.6996 66.6999 34.6996C65.0999 35.0996 63.3999 34.9996 61.6999 34.9996H42.7999V61.0996H48.7999V40.7996H62.1999C65.7999 40.7996 67.4999 40.6996 69.1999 40.1996C75.1999 38.4996 78.0999 32.7996 78.0999 26.5996Z" fill="#23304D"/>
<path d="M141.9 32.5998C141.9 26.1998 140.8 19.1998 138.7 13.5998C137.2 9.4998 135 5.2998 132.2 1.3998C132 1.1998 131.9 0.999805 131.7 0.799805H131H130.1H125.7C125.9 0.999805 126 1.1998 126.2 1.3998C129 5.3998 131.2 9.4998 132.7 13.5998C134.8 19.2998 135.9 26.2998 135.9 32.5998C135.9 38.8998 134.7 45.6998 132.6 51.5998C131.4 54.9998 129.9 58.0998 128.1 60.9998H133.1H134H134.2C136 58.0998 137.5 54.8998 138.7 51.5998C140.7 45.7998 141.9 38.8998 141.9 32.5998Z" fill="#B1AA8D"/>
<path d="M78.1999 70.5999C78.1999 70.7999 78.2 70.9999 78 71.0999C77.7 71.4999 77.3 71.4999 76.9 71.4999H75.5V69.5999H76.8C77.1 69.5999 77.3999 69.5999 77.6999 69.7999C78.1999 69.9999 78.1999 70.4999 78.1999 70.5999ZM79.0999 74.3999L77.6999 72.0999C77.9999 71.9999 78.0999 71.9999 78.1999 71.8999C78.8999 71.5999 78.9 70.7999 78.9 70.5999C78.9 70.0999 78.6999 69.7999 78.5999 69.5999C78.3999 69.2999 78 69.0999 77.3 69.0999C77.1 69.0999 77 69.0999 76.8 69.0999H74.9V74.3999H75.5999V72.0999H76.9L78.3 74.3999H79.0999ZM73.5 69.0999H72.6999L71.3 71.2999L70 69.0999H69.1999L71 71.9999V74.3999H71.6999V71.9999L73.5 69.0999ZM67.3 72.0999H65.8L66.5999 69.8999L67.3 72.0999ZM68.8 74.3999L66.9 69.0999H66.1999L64.3 74.3999H65L65.5999 72.7999H67.5999L68.1999 74.3999H68.8ZM63 74.3999V69.0999H62.0999L60.5 73.3999L59 69.0999H58.0999V74.3999H58.8L58.6999 69.9999L60.3 74.3999H60.8L62.4 69.9999L62.3 74.3999H63ZM56.6999 74.3999V73.7999H54.1999V69.0999H53.5V74.3999H56.6999ZM52 72.7999C52 72.3999 51.9 72.1999 51.8 72.0999C51.5 71.5999 50.8999 71.3999 50.6999 71.3999C50.5999 71.3999 50.4 71.2999 50.3 71.2999L49.7 71.1999C49.4 71.0999 48.9999 70.9999 48.7999 70.7999C48.6999 70.5999 48.7 70.4999 48.7 70.3999C48.7 70.1999 48.8 69.9999 48.9 69.8999C49.1 69.5999 49.6 69.4999 49.9 69.4999C50.7 69.4999 51.0999 69.8999 51.1999 70.2999C51.1999 70.3999 51.2 70.4999 51.3 70.5999H52C52 70.2999 51.9 70.0999 51.8 69.7999C51.7 69.6999 51.6 69.4999 51.4 69.2999C51 68.9999 50.5 68.8999 50 68.8999C49.8 68.8999 49.1999 68.8999 48.5999 69.2999C48.2999 69.5999 48.0999 69.8999 48.0999 70.2999C48.0999 70.5999 48.1999 71.0999 48.7999 71.3999C49.0999 71.5999 49.6 71.6999 49.9 71.7999L50.3 71.8999C50.5 71.9999 50.8 71.9999 51 72.1999C51.1 72.2999 51.3 72.3999 51.3 72.7999C51.3 73.4999 50.7 73.6999 50.5 73.7999C50.3 73.8999 50.1 73.8999 50 73.8999C49.4 73.8999 49.1 73.6999 48.9 73.4999C48.6 73.0999 48.5999 72.6999 48.5999 72.4999L47.9 72.5999C47.9 72.7999 47.9999 73.1999 48.2999 73.6999C48.3999 73.8999 48.6 73.9999 48.7 74.0999C49.2 74.4999 49.8999 74.4999 50.0999 74.4999C50.9999 74.4999 51.3999 74.1999 51.6999 73.8999C51.9999 73.4999 52 72.9999 52 72.7999ZM46.5999 74.3999V73.7999H43.5999V71.9999H46.0999V71.3999H43.5999V69.7999H46.5V69.1999H43V74.4999H46.5999V74.3999ZM40.7 70.5999C40.7 70.7999 40.7 70.9999 40.5 71.0999C40.2 71.4999 39.8 71.4999 39.4 71.4999H38V69.5999H39.2999C39.5999 69.5999 39.9 69.5999 40.2 69.7999C40.7 69.9999 40.7 70.4999 40.7 70.5999ZM41.5999 74.3999L40.2 72.0999C40.5 71.9999 40.6 71.9999 40.7 71.8999C41.4 71.5999 41.4 70.7999 41.4 70.5999C41.4 70.0999 41.1999 69.7999 41.0999 69.5999C40.8999 69.2999 40.4999 69.0999 39.7999 69.0999C39.5999 69.0999 39.4999 69.0999 39.2999 69.0999H37.4V74.3999H38.0999V72.0999H39.4L40.7999 74.3999H41.5999ZM35.4 70.4999C35.4 70.8999 35.1999 71.2999 34.7999 71.3999C34.5999 71.3999 34.4 71.3999 34.2 71.3999H32.7999V69.5999H34.4C34.6 69.5999 34.6999 69.5999 34.7999 69.5999C34.9999 69.6999 35.1999 69.7999 35.2999 70.0999C35.3999 70.2999 35.4 70.4999 35.4 70.4999ZM36.0999 70.5999C36.0999 70.3999 36.1 69.6999 35.5 69.2999C35.2 69.0999 34.8 69.0999 34.4 69.0999H32.2V74.3999H32.9V72.1999H34.4C34.8 72.1999 35 72.1999 35.2 72.0999C35.7 71.8999 36.0999 71.1999 36.0999 70.5999Z" fill="#23304D"/>
<path d="M25.9 74.4L23.7 71.3L25.7999 69.1H25L22.5999 71.7V69.1H21.9V74.4H22.5999V72.6L23.2999 71.8L25.0999 74.4H25.9ZM19.0999 72.1H17.6L18.4 69.9L19.0999 72.1ZM20.5999 74.4L18.7 69.1H18L16.1 74.4H16.7999L17.4 72.8H19.2999L19.9 74.4H20.5999ZM15.1 74.4V73.8H12.6V69.1H12V74.4H15.1ZM9.69995 71.7C9.69995 73 9.09995 73.6 8.69995 73.8C8.39995 73.9 8.09995 74 7.89995 74C7.59995 74 7.29995 73.9 7.19995 73.9C7.09995 73.9 6.89995 73.8 6.69995 73.6C6.59995 73.5 6.49995 73.4 6.39995 73.2C6.29995 73 6.09995 72.5 6.09995 71.8C6.09995 71.3 6.19995 70.7 6.49995 70.3C6.69995 70 7.09995 69.6 7.99995 69.6C8.29995 69.6 8.99995 69.6 9.39995 70.3C9.69995 70.8 9.69995 71.5 9.69995 71.7ZM10.4 71.7C10.4 70.6 9.89995 69.6 8.79995 69.2C8.49995 69.1 8.09995 69 7.79995 69C7.09995 69 6.29995 69.3 5.89995 69.8C5.29995 70.5 5.29995 71.4 5.29995 71.7C5.29995 72.8 5.79995 73.5 6.09995 73.8C6.79995 74.4 7.59995 74.5 7.89995 74.5C9.09995 74.5 9.69995 73.9 9.99995 73.5C10.4 72.8 10.4 71.9 10.4 71.7ZM3.39995 70.5C3.39995 70.9 3.19995 71.3 2.79995 71.4C2.59995 71.4 2.39995 71.4 2.19995 71.4H0.799952V69.6H2.39995C2.59995 69.6 2.69995 69.6 2.79995 69.6C2.99995 69.7 3.19995 69.8 3.29995 70.1C3.39995 70.3 3.39995 70.5 3.39995 70.5ZM4.09995 70.6C4.09995 70.4 4.09995 69.7 3.49995 69.3C3.19995 69.1 2.79995 69.1 2.39995 69.1H0.199951V74.4H0.899951V72.2H2.39995C2.79995 72.2 2.99995 72.2 3.19995 72.1C3.69995 71.9 4.09995 71.2 4.09995 70.6Z" fill="#23304D"/>
<path d="M120.2 70.5996C120.2 70.7996 120.2 70.9996 120 71.0996C119.7 71.4996 119.3 71.4996 118.9 71.4996H117.5V69.5996H118.8C119.1 69.5996 119.4 69.5996 119.7 69.7996C120.2 69.9996 120.2 70.4996 120.2 70.5996ZM121.1 74.3996L119.7 72.0996C120 71.9996 120.1 71.9996 120.2 71.8996C120.9 71.5996 120.9 70.7996 120.9 70.5996C120.9 70.0996 120.7 69.7996 120.6 69.5996C120.4 69.2996 120 69.0996 119.3 69.0996C119.1 69.0996 119 69.0996 118.8 69.0996H116.9V74.3996H117.6V72.0996H118.9L120.3 74.3996H121.1ZM115.4 74.3996V73.7996H112.4V71.9996H114.9V71.3996H112.4V69.7996H115.3V69.1996H111.8V74.4996H115.4V74.3996ZM109.9 74.3996V69.0996H109.3V73.2996L106.5 69.0996H105.9V74.3996H106.5L106.4 70.0996L109.2 74.3996H109.9ZM104.5 69.6996V69.0996H100.8V69.6996H102.3V74.3996H103V69.6996H104.5ZM98.9999 70.5996C98.9999 70.7996 98.9999 70.9996 98.7999 71.0996C98.4999 71.4996 98.0999 71.4996 97.6999 71.4996H96.2999V69.5996H97.5999C97.8999 69.5996 98.1999 69.5996 98.4999 69.7996C98.9999 69.9996 98.9999 70.4996 98.9999 70.5996ZM99.8999 74.3996L98.4999 72.0996C98.7999 71.9996 98.8999 71.9996 98.9999 71.8996C99.6999 71.5996 99.6999 70.7996 99.6999 70.5996C99.6999 70.0996 99.4999 69.7996 99.3999 69.5996C99.1999 69.2996 98.7999 69.0996 98.0999 69.0996C97.8999 69.0996 97.7999 69.0996 97.5999 69.0996H95.6999V74.3996H96.3999V72.0996H97.6999L99.0999 74.3996H99.8999ZM92.8999 72.0996H91.3999L92.1999 69.8996L92.8999 72.0996ZM94.2999 74.3996L92.3999 69.0996H91.6999L89.7999 74.3996H90.4999L91.0999 72.7996H93.0999L93.6999 74.3996H94.2999ZM88.5999 70.4996C88.5999 70.8996 88.3999 71.2996 87.9999 71.3996C87.7999 71.3996 87.5999 71.3996 87.3999 71.3996H85.9999V69.5996H87.5999C87.7999 69.5996 87.8999 69.5996 87.9999 69.5996C88.1999 69.6996 88.3999 69.7996 88.4999 70.0996C88.5999 70.2996 88.5999 70.4996 88.5999 70.4996ZM89.2999 70.5996C89.2999 70.3996 89.2999 69.6996 88.6999 69.2996C88.3999 69.0996 87.9999 69.0996 87.5999 69.0996H85.3999V74.3996H86.0999V72.1996H87.5999C87.9999 72.1996 88.1999 72.1996 88.3999 72.0996C88.8999 71.8996 89.2999 71.1996 89.2999 70.5996Z" fill="#23304D"/>
<path d="M29.4 73.7998H28.7V74.4998H29.4V73.7998Z" fill="#23304D"/>
<path d="M82.6 73.7998H81.9V74.4998H82.6V73.7998Z" fill="#23304D"/>
</svg>
